<?xml version="1.0" encoding="UTF-8" standalone="no"?>
<!-- Created with Inkscape (http://www.inkscape.org/) -->
<svg xmlns:dc="http://purl.org/dc/elements/1.1/" xmlns:cc="http://creativecommons.org/ns#" xmlns:rdf="http://www.w3.org/1999/02/22-rdf-syntax-ns#" xmlns:svg="http://www.w3.org/2000/svg" xmlns="http://www.w3.org/2000/svg" xmlns:xlink="http://www.w3.org/1999/xlink" xmlns:sodipodi="http://sodipodi.sourceforge.net/DTD/sodipodi-0.dtd" xmlns:inkscape="http://www.inkscape.org/namespaces/inkscape" width="500" height="300" id="svg2" version="1.1" inkscape:version="0.47 r22583" sodipodi:docname="New document 1">
  <defs id="defs4">
    <linearGradient inkscape:collect="always" id="linearGradient4632">
      <stop style="stop-color:#aaaaaa;stop-opacity:1;" offset="0" id="stop4634"/>
      <stop style="stop-color:#333333;stop-opacity:1" offset="1" id="stop4636"/>
    </linearGradient>
    <linearGradient inkscape:collect="always" id="linearGradient4624">
      <stop style="stop-color:#666666;stop-opacity:1;" offset="0" id="stop4626"/>
      <stop style="stop-color:#333333;stop-opacity:1" offset="1" id="stop4628"/>
    </linearGradient>
    <linearGradient inkscape:collect="always" id="linearGradient4599">
      <stop style="stop-color:#fd3301;stop-opacity:1;" offset="0" id="stop4601"/>
      <stop style="stop-color:#d40000;stop-opacity:1" offset="1" id="stop4603"/>
    </linearGradient>
    <linearGradient inkscape:collect="always" id="linearGradient4360">
      <stop style="stop-color:#eeeeee;stop-opacity:1;" offset="0" id="stop4362"/>
      <stop style="stop-color:#000000;stop-opacity:1" offset="1" id="stop4364"/>
    </linearGradient>
    <linearGradient inkscape:collect="always" id="linearGradient4340">
      <stop style="stop-color:#d40000;stop-opacity:1;" offset="0" id="stop4342"/>
      <stop style="stop-color:#f44800;stop-opacity:1" offset="1" id="stop4344"/>
    </linearGradient>
    <linearGradient inkscape:collect="always" id="linearGradient4330">
      <stop style="stop-color:#cccccf;stop-opacity:1;" offset="0" id="stop4332"/>
      <stop style="stop-color:#000000;stop-opacity:1" offset="1" id="stop4334"/>
    </linearGradient>
    <linearGradient inkscape:collect="always" id="linearGradient4320">
      <stop style="stop-color:#666666;stop-opacity:1;" offset="0" id="stop4322"/>
      <stop style="stop-color:#333333;stop-opacity:1" offset="1" id="stop4324"/>
    </linearGradient>
    <linearGradient inkscape:collect="always" id="linearGradient4179">
      <stop style="stop-color:#576266;stop-opacity:1;" offset="0" id="stop4181"/>
      <stop style="stop-color:#888888;stop-opacity:1" offset="1" id="stop4183"/>
    </linearGradient>
    <inkscape:perspective sodipodi:type="inkscape:persp3d" inkscape:vp_x="0 : 526.18109 : 1" inkscape:vp_y="0 : 1000 : 0" inkscape:vp_z="744.09448 : 526.18109 : 1" inkscape:persp3d-origin="372.04724 : 350.78739 : 1" id="perspective10"/>
    <inkscape:perspective id="perspective2824" inkscape:persp3d-origin="0.5 : 0.33333333 : 1" inkscape:vp_z="1 : 0.5 : 1" inkscape:vp_y="0 : 1000 : 0" inkscape:vp_x="0 : 0.5 : 1" sodipodi:type="inkscape:persp3d"/>
    <inkscape:perspective id="perspective3641" inkscape:persp3d-origin="0.5 : 0.33333333 : 1" inkscape:vp_z="1 : 0.5 : 1" inkscape:vp_y="0 : 1000 : 0" inkscape:vp_x="0 : 0.5 : 1" sodipodi:type="inkscape:persp3d"/>
    <filter inkscape:collect="always" id="filter3766" x="-0.67999983" width="2.3599997" y="-0.012215569" height="1.0244311" color-interpolation-filters="sRGB">
      <feGaussianBlur inkscape:collect="always" stdDeviation="0.4485902" id="feGaussianBlur3768"/>
    </filter>
    <filter inkscape:collect="always" id="filter3784" x="-1.0199997" width="3.0399995" y="-0.018323353" height="1.0366467" color-interpolation-filters="sRGB">
      <feGaussianBlur inkscape:collect="always" stdDeviation="0.6728853" id="feGaussianBlur3786"/>
    </filter>
    <filter inkscape:collect="always" id="filter3797" x="-1.5773191" width="4.1546383" y="-0.028335083" height="1.0566702" color-interpolation-filters="sRGB">
      <feGaussianBlur inkscape:collect="always" stdDeviation="1.0405443" id="feGaussianBlur3799"/>
    </filter>
    <filter inkscape:collect="always" id="filter3807" x="-0.98350501" width="2.96701" y="-0.22872214" height="1.4574443" color-interpolation-filters="sRGB">
      <feGaussianBlur inkscape:collect="always" stdDeviation="1.7621996" id="feGaussianBlur3809"/>
    </filter>
    <filter inkscape:collect="always" id="filter3897" x="-4.8097229" width="10.619446" y="-0.26710856" height="1.5342171" color-interpolation-filters="sRGB">
      <feGaussianBlur inkscape:collect="always" stdDeviation="1.4684104" id="feGaussianBlur3899"/>
    </filter>
    <filter inkscape:collect="always" id="filter4127" x="-1.9189059" width="4.8378119" y="-0.056199074" height="1.1123981" color-interpolation-filters="sRGB">
      <feGaussianBlur inkscape:collect="always" stdDeviation="1.0875054" id="feGaussianBlur4129"/>
    </filter>
    <filter inkscape:collect="always" id="filter4483" x="-0.055447765" width="1.1108955" y="-2.0681386" height="5.1362777" color-interpolation-filters="sRGB">
      <feGaussianBlur inkscape:collect="always" stdDeviation="0.99981008" id="feGaussianBlur4485"/>
    </filter>
    <filter inkscape:collect="always" id="filter4493" x="-0.081624582" width="1.1632493" y="-1.4660127" height="3.9320254" color-interpolation-filters="sRGB">
      <feGaussianBlur inkscape:collect="always" stdDeviation="1.6513092" id="feGaussianBlur4495"/>
    </filter>
    <filter inkscape:collect="always" id="filter4507" x="-0.17115313" width="1.3423063" y="-27.726444" height="56.452888" color-interpolation-filters="sRGB">
      <feGaussianBlur inkscape:collect="always" stdDeviation="1.8065319" id="feGaussianBlur4509"/>
    </filter>
    <filter inkscape:collect="always" id="filter4515" color-interpolation-filters="sRGB">
      <feGaussianBlur inkscape:collect="always" stdDeviation="0.12835483" id="feGaussianBlur4517"/>
    </filter>
    <filter inkscape:collect="always" id="filter4591" x="-0.28734517" width="1.5746903" y="-0.17380801" height="1.347616" color-interpolation-filters="sRGB">
      <feGaussianBlur inkscape:collect="always" stdDeviation="0.95549724" id="feGaussianBlur4593"/>
    </filter>
    <filter inkscape:collect="always" id="filter4803" x="-0.33421177" width="1.6684235" y="-0.20535904" height="1.4107181" color-interpolation-filters="sRGB">
      <feGaussianBlur inkscape:collect="always" stdDeviation="3.551" id="feGaussianBlur4805"/>
    </filter>
    <filter inkscape:collect="always" id="filter4815" x="-0.14552772" width="1.2910554" y="-0.53556257" height="2.071125" color-interpolation-filters="sRGB">
      <feGaussianBlur inkscape:collect="always" stdDeviation="3.4637307" id="feGaussianBlur4817"/>
    </filter>
    <linearGradient inkscape:collect="always" xlink:href="#linearGradient4632" id="linearGradient4912" gradientUnits="userSpaceOnUse" x1="-23.748892" y1="526.72003" x2="-21.901756" y2="496.62311"/>
    <linearGradient inkscape:collect="always" xlink:href="#linearGradient4624" id="linearGradient4914" gradientUnits="userSpaceOnUse" x1="106.60614" y1="533.58081" x2="108.71715" y2="506.13766"/>
    <radialGradient inkscape:collect="always" xlink:href="#linearGradient4360" id="radialGradient4916" gradientUnits="userSpaceOnUse" gradientTransform="matrix(-0.77154655,0.06365793,-0.02424321,-0.29383184,75.861863,681.95726)" cx="37.998226" cy="526.67371" fx="37.998226" fy="526.67371" r="12.436037"/>
    <radialGradient inkscape:collect="always" xlink:href="#linearGradient4340" id="radialGradient4918" gradientUnits="userSpaceOnUse" gradientTransform="matrix(-0.58396765,-1.3860505,0.94395403,-0.4066899,-541.66152,580.36515)" cx="-67.981102" cy="455.73016" fx="-67.981102" fy="455.73016" r="20.046602"/>
    <radialGradient inkscape:collect="always" xlink:href="#linearGradient4330" id="radialGradient4920" gradientUnits="userSpaceOnUse" gradientTransform="matrix(-1.3087792,0.08751745,-0.04027942,-0.60235836,-140.93356,775.66868)" cx="-69.411079" cy="479.68167" fx="-69.411079" fy="479.68167" r="16.919825"/>
    <linearGradient inkscape:collect="always" xlink:href="#linearGradient4320" id="linearGradient4922" gradientUnits="userSpaceOnUse" x1="27.241983" y1="596.71204" x2="79.860062" y2="599.88879"/>
    <linearGradient inkscape:collect="always" xlink:href="#linearGradient4179" id="linearGradient4924" gradientUnits="userSpaceOnUse" x1="129.49271" y1="599.69745" x2="149.64432" y2="587.01892"/>
    <radialGradient inkscape:collect="always" xlink:href="#linearGradient4360" id="radialGradient4926" gradientUnits="userSpaceOnUse" gradientTransform="matrix(-0.77154655,0.06365793,-0.02424321,-0.29383184,75.861863,681.95726)" cx="37.998226" cy="526.67371" fx="37.998226" fy="526.67371" r="12.436037"/>
    <linearGradient inkscape:collect="always" xlink:href="#linearGradient4599" id="linearGradient4928" gradientUnits="userSpaceOnUse" x1="58.580601" y1="481.33325" x2="63.330379" y2="481.86102"/>
    <linearGradient inkscape:collect="always" xlink:href="#linearGradient4632" id="linearGradient5094" gradientUnits="userSpaceOnUse" x1="-23.748892" y1="526.72003" x2="-21.901756" y2="496.62311"/>
    <linearGradient inkscape:collect="always" xlink:href="#linearGradient4624" id="linearGradient5096" gradientUnits="userSpaceOnUse" x1="106.60614" y1="533.58081" x2="108.71715" y2="506.13766"/>
    <radialGradient inkscape:collect="always" xlink:href="#linearGradient4360" id="radialGradient5098" gradientUnits="userSpaceOnUse" gradientTransform="matrix(-0.77154655,0.06365793,-0.02424321,-0.29383184,75.861863,681.95726)" cx="37.998226" cy="526.67371" fx="37.998226" fy="526.67371" r="12.436037"/>
    <radialGradient inkscape:collect="always" xlink:href="#linearGradient4340" id="radialGradient5100" gradientUnits="userSpaceOnUse" gradientTransform="matrix(-0.58396765,-1.3860505,0.94395403,-0.4066899,-541.66152,580.36515)" cx="-67.981102" cy="455.73016" fx="-67.981102" fy="455.73016" r="20.046602"/>
    <radialGradient inkscape:collect="always" xlink:href="#linearGradient4330" id="radialGradient5102" gradientUnits="userSpaceOnUse" gradientTransform="matrix(-1.3087792,0.08751745,-0.04027942,-0.60235836,-140.93356,775.66868)" cx="-69.411079" cy="479.68167" fx="-69.411079" fy="479.68167" r="16.919825"/>
    <linearGradient inkscape:collect="always" xlink:href="#linearGradient4320" id="linearGradient5104" gradientUnits="userSpaceOnUse" x1="27.241983" y1="596.71204" x2="79.860062" y2="599.88879"/>
    <linearGradient inkscape:collect="always" xlink:href="#linearGradient4179" id="linearGradient5106" gradientUnits="userSpaceOnUse" x1="129.49271" y1="599.69745" x2="149.64432" y2="587.01892"/>
    <radialGradient inkscape:collect="always" xlink:href="#linearGradient4360" id="radialGradient5108" gradientUnits="userSpaceOnUse" gradientTransform="matrix(-0.77154655,0.06365793,-0.02424321,-0.29383184,75.861863,681.95726)" cx="37.998226" cy="526.67371" fx="37.998226" fy="526.67371" r="12.436037"/>
    <linearGradient inkscape:collect="always" xlink:href="#linearGradient4599" id="linearGradient5110" gradientUnits="userSpaceOnUse" x1="58.580601" y1="481.33325" x2="63.330379" y2="481.86102"/>
  </defs>
  <sodipodi:namedview id="base" pagecolor="#ffffff" bordercolor="#666666" borderopacity="1.0" inkscape:pageopacity="0.0" inkscape:pageshadow="2" inkscape:zoom="0.1767767" inkscape:cx="213.29084" inkscape:cy="516.59607" inkscape:document-units="px" inkscape:current-layer="layer1" showgrid="false" showguides="true" inkscape:guide-bbox="true" inkscape:window-width="1280" inkscape:window-height="712" inkscape:window-x="-4" inkscape:window-y="-4" inkscape:window-maximized="1"/>
  <metadata id="metadata7">
    <rdf:RDF>
      <cc:Work rdf:about="">
        <dc:format>image/svg+xml</dc:format>
        <dc:type rdf:resource="http://purl.org/dc/dcmitype/StillImage"/>
        <dc:title/>
      </cc:Work>
    </rdf:RDF>
  </metadata>
  <g inkscape:label="Layer 1" inkscape:groupmode="layer" id="layer1" transform="translate(0,-752.36218)">
    <g id="g5000" transform="matrix(0.24800692,0,0,0.24800692,171.85121,773.81308)">
      <g transform="matrix(6.8527248,0,0,6.8527248,-169.05167,-3238.8834)" id="g4819">
        <path style="fill:url(#linearGradient5094);fill-opacity:1;stroke:#858585;stroke-width:1;stroke-linecap:butt;stroke-linejoin:miter;stroke-miterlimit:4;stroke-opacity:1;stroke-dasharray:none" d="m -24.276646,534.29308 -2.111012,-36.07172 c 2.638766,-3.05175 5.277531,-1.85827 7.916297,6.33304 l 0.3484,29.56448 -6.153685,0.1742 z" id="path4403" sodipodi:nodetypes="ccccc"/>
        <path style="fill:#131617;fill-opacity:1;stroke:#000000;stroke-width:0;stroke-linecap:butt;stroke-linejoin:miter;stroke-miterlimit:4;stroke-opacity:1;stroke-dasharray:none" d="m 74.94095,498.74911 36.94272,0.52775 2.63877,17.41586 c -12.28991,0.87959 -34.159171,1.23142 -39.412445,2.11101 L 74.94095,498.74911 z" id="path4429" sodipodi:nodetypes="ccccc"/>
        <path sodipodi:nodetypes="cccccccccc" id="path4643" d="m 156.4302,525.15266 -20.46294,0.44549 c -6.57715,0.13399 -11.87211,5.6588 -11.87211,12.38747 l 1.23294,59.58122 c 0,6.72863 7.17878,10.62488 13.75598,10.49089 l 19.13088,-0.38972 c 6.57715,-0.134 11.87212,-5.65881 11.87212,-12.38744 l -1.7847,-58.22418 c 0,-6.72864 -5.29502,-12.03773 -11.87217,-11.90374 l 0,10e-6 z" style="fill:#333333;fill-opacity:1;fill-rule:evenodd;stroke:#1c1c1c;stroke-width:1;stroke-linecap:round;stroke-linejoin:round;stroke-miterlimit:4;stroke-opacity:0.96103893;stroke-dasharray:none;stroke-dashoffset:0"/>
        <path style="fill:url(#linearGradient5096);fill-opacity:1;stroke:#4a4444;stroke-width:1;stroke-linecap:butt;stroke-linejoin:miter;stroke-miterlimit:4;stroke-opacity:1;stroke-dasharray:none" d="m 105.55063,538.3306 c 3.51294,-3.517 4.66832,-44.3109 2.63877,-43.80351 l 4.22202,3.69427 c 2.21856,16.53627 1.57066,33.07253 1.05551,49.6088 l -7.9163,-9.49956 z" id="path4622" sodipodi:nodetypes="ccccc"/>
        <g transform="matrix(-0.86429271,0.13011835,0,0.74041159,146.2785,135.99164)" id="g4378">
          <path style="fill:#000000;stroke:#000000;stroke-width:1px;stroke-linecap:butt;stroke-linejoin:miter;stroke-opacity:1" d="m 45.386772,543.08037 -4.485902,-10.0273 0.79163,0 4.121747,9.54943 -0.427475,0.47787 z" id="path4380" sodipodi:nodetypes="ccccc"/>
          <path style="fill:url(#radialGradient5098);fill-opacity:1;stroke:#000000;stroke-width:1px;stroke-linecap:butt;stroke-linejoin:miter;stroke-opacity:1" d="m 42.220254,533.58081 0,-6.33303 -22.165633,0 c -3.419513,3.52527 -0.976464,4.85207 1.055506,6.33304 l 21.110127,-10e-6 z" id="path4382" sodipodi:nodetypes="ccccc"/>
        </g>
        <g id="g4348" transform="matrix(0.92388098,0.22166711,-0.24581913,0.91740947,251.11283,105.9437)">
          <path sodipodi:nodetypes="ccsssc" id="path4338" d="m -55.519586,489.95419 c -10.248141,1.23815 -18.990672,9.57843 -30.136161,7.32161 -3.786007,-3.72274 -9.507563,-12.952 -9.131425,-17.36843 0.726453,-8.52965 7.556038,-15.96437 15.837354,-18.13288 8.505595,-2.22723 22.216402,3.40229 22.973142,12.16204 0.399023,4.61895 1.017205,9.91487 0.45709,16.01766 z" style="fill:url(#radialGradient5100);fill-opacity:1;stroke:#f52c00;stroke-width:1.0528841;stroke-linecap:butt;stroke-linejoin:miter;stroke-miterlimit:4;stroke-opacity:1;stroke-dasharray:none"/>
          <path sodipodi:nodetypes="ccccc" id="path4328" d="m -84.338193,491.84907 -6.717201,-11.9417 c 10.697765,-5.6909 21.39553,-7.73666 32.093295,-7.46356 l 0.746356,11.9417 c -14.432999,-1.80629 -19.192744,3.64237 -26.12245,7.46356 z" style="fill:url(#radialGradient5102);fill-opacity:1;stroke:#000000;stroke-width:1px;stroke-linecap:butt;stroke-linejoin:miter;stroke-opacity:1"/>
        </g>
        <path sodipodi:nodetypes="cccccccccc" id="path4004" d="m 202.34469,534.99889 c -7.20617,0.41966 -6.37209,-1.01612 -21.97109,1.34035 -7.06193,0.42092 -16.44142,3.9372 -14.85816,15.38382 l 3.43486,62.33728 c 0,7.22459 1.7387,11.08496 14.7698,13.32342 l 20.01312,-1.22434 c 12.3343,-2.73707 13.27491,-9.21475 13.27491,-16.43933 l -1.91628,-62.44023 c 0,-7.22459 -5.68523,-12.7019 -12.74716,-12.28098 l 0,10e-6 z" style="fill:#333333;fill-opacity:1;fill-rule:evenodd;stroke:#000000;stroke-width:0;stroke-linecap:round;stroke-linejoin:round;stroke-miterlimit:4;stroke-opacity:0.96103893;stroke-dashoffset:0"/>
        <path transform="matrix(-0.95813994,0.07773139,0,0.97999272,177.05089,0.07867839)" style="opacity:0.67368421;fill:none;stroke:#888888;stroke-width:0.40000001;stroke-linecap:butt;stroke-linejoin:miter;stroke-miterlimit:4;stroke-opacity:1;stroke-dasharray:none;filter:url(#filter3766)" d="m -14.276642,549.41341 c -0.51757,5.29164 -1.07249,52.86145 -1.58326,88.13478" id="path4008" sodipodi:nodetypes="cc"/>
        <path transform="matrix(-0.95813994,0.07773139,0,0.97999272,177.05089,0.07867839)" sodipodi:nodetypes="cc" id="path4010" d="m -6.2766423,549.41341 c -0.51757,5.29164 -1.07249,52.86145 -1.58326,88.13478" style="opacity:0.67368421;fill:none;stroke:#666666;stroke-width:0.40000001;stroke-linecap:butt;stroke-linejoin:miter;stroke-miterlimit:4;stroke-opacity:1;stroke-dasharray:none;filter:url(#filter3766)"/>
        <path transform="matrix(-0.91587901,0.07430288,0,0.93676792,487.04225,-34.069407)" style="opacity:0.67368421;fill:#111111;fill-opacity:1;stroke:#000000;stroke-width:0.71346915;stroke-linecap:butt;stroke-linejoin:miter;stroke-miterlimit:4;stroke-opacity:1;stroke-dasharray:none;filter:url(#filter3784)" d="m 327.32829,583.34864 c -0.51757,5.29164 -2.63408,57.84774 -3.14485,93.12107" id="path4020" sodipodi:nodetypes="cc"/>
        <path sodipodi:nodetypes="cc" id="path4022" d="m 324.59551,585.30063 c -0.51757,5.29164 -1.07249,52.86145 -1.58326,88.13478" style="opacity:0.67368421;fill:none;stroke:#150202;stroke-width:0.71346915;stroke-linecap:butt;stroke-linejoin:miter;stroke-miterlimit:4;stroke-opacity:1;stroke-dasharray:none;filter:url(#filter3784)" transform="matrix(-0.91587901,0.07430288,0,0.93676792,479.37714,-33.447556)"/>
        <path transform="matrix(-0.91587901,0.07430288,0,0.93676792,479.37714,-33.447556)" style="opacity:0.67368421;fill:none;stroke:#030303;stroke-width:0.71346915;stroke-linecap:butt;stroke-linejoin:miter;stroke-miterlimit:4;stroke-opacity:1;stroke-dasharray:none;filter:url(#filter3784)" d="m 328.10908,583.73904 c -0.51757,5.29164 -3.6007,58.19497 -4.11147,93.4683" id="path4024" sodipodi:nodetypes="cc"/>
        <path transform="matrix(-0.95813994,0.03759146,0,0.97999272,177.05089,3.3590851)" id="path4026" d="m 3.166519,548.57993 c 0.7036709,0 0.5277532,-0.17591 0.5277532,0.52776 0,0.17591 -0.1243926,0.40336 0,0.52775 0.1243926,0.12439 0.4033605,-0.12439 0.5277531,0 0.1243926,0.12439 -0.078673,0.37041 0,0.52775 0.1112602,0.22252 0.4164931,0.30524 0.5277532,0.52776 0.078673,0.15734 0,0.35183 0,0.52775 0,0.52775 0,1.05551 0,1.58326 0,0.17592 -0.1243926,0.40336 0,0.52775 0.1243926,0.1244 0.3704076,-0.0787 0.5277532,0 0.2225202,0.11126 0.7036709,0.35184 0.5277531,0.52776 -0.1759177,0.17591 -0.7036709,-0.70368 -0.5277531,-0.52776 0.3518354,0.35184 0.6415027,0.77951 1.0555063,1.05551 0.8189551,0.54597 0.3433743,-0.89651 1.0555063,0.52775 0.078673,0.15735 0,0.35184 0,0.52776 0,0.52775 0,1.0555 0,1.58325 0,0.35371 0,0.7018 0,1.05551 0,0.17592 0,0.70367 0,0.52775 0,-0.35183 0,-1.40734 0,-1.0555 0,1.23142 0,2.46285 0,3.69427 0,1.23142 0,2.46285 0,3.69427 0,0.52776 0,1.05551 0,1.58326 0,0.17592 0.1759178,0.52775 0,0.52775 -0.1759177,0 0,-0.35183 0,-0.52775" style="fill:none;stroke:#e8d1d1;stroke-width:1px;stroke-linecap:butt;stroke-linejoin:miter;stroke-opacity:1;filter:url(#filter3807)"/>
        <path style="fill:none;stroke:#322f2f;stroke-width:1px;stroke-linecap:butt;stroke-linejoin:miter;stroke-opacity:1" d="m -71.774431,612.21604 c -1.464538,-18.04471 -2.679254,-36.67233 0,-64.38588" id="path4071" sodipodi:nodetypes="cc"/>
        <path sodipodi:nodetypes="cc" id="path4089" d="m -72.038308,605.09137 c -1.464538,-20.15572 -0.304365,-18.72873 0.263877,-46.44228" style="fill:none;stroke:#d9d6d6;stroke-width:1px;stroke-linecap:butt;stroke-linejoin:miter;stroke-opacity:1;filter:url(#filter4127)"/>
        <path sodipodi:nodetypes="cccccccccc" id="path4045" d="m -36.485928,532.78584 -22.446511,0.48869 c -7.214729,0.14697 -13.022976,6.20732 -13.022976,13.58823 l 1.352496,65.35673 c 0,7.38092 7.874668,11.65483 15.089397,11.50786 l 20.985339,-0.42749 c 7.214729,-0.14698 13.022986,-6.20733 13.022986,-13.58825 l -1.957745,-63.86813 c 0,-7.38091 -5.808256,-13.20462 -13.022986,-13.05765 l 0,10e-6 z" style="fill:#333333;fill-opacity:1;fill-rule:evenodd;stroke:#000000;stroke-width:0;stroke-linecap:round;stroke-linejoin:round;stroke-miterlimit:4;stroke-opacity:0.96103893;stroke-dashoffset:0"/>
        <path transform="matrix(-0.97887232,0.04100849,0,1.001198,-62.327043,-14.722905)" sodipodi:nodetypes="cc" id="path4047" d="m -24.276642,549.41341 c -0.51757,5.29164 -1.07249,52.86145 -1.58326,88.13478" style="opacity:0.67368421;fill:none;stroke:#696969;stroke-width:0.40000001;stroke-linecap:butt;stroke-linejoin:miter;stroke-miterlimit:4;stroke-opacity:1;stroke-dasharray:none;filter:url(#filter3766)"/>
        <path transform="matrix(-0.97887232,0.04100849,0,1.001198,-62.327043,-14.722905)" style="opacity:0.67368421;fill:none;stroke:#888888;stroke-width:0.40000001;stroke-linecap:butt;stroke-linejoin:miter;stroke-miterlimit:4;stroke-opacity:1;stroke-dasharray:none;filter:url(#filter3766)" d="m -14.276642,549.41341 c -0.51757,5.29164 -1.07249,52.86145 -1.58326,88.13478" id="path4049" sodipodi:nodetypes="cc"/>
        <path transform="matrix(-0.97887232,0.04100849,0,1.001198,-62.327043,-14.722905)" sodipodi:nodetypes="cc" id="path4051" d="m -6.2766423,549.41341 c -0.51757,5.29164 -1.07249,52.86145 -1.58326,88.13478" style="opacity:0.67368421;fill:none;stroke:#666666;stroke-width:0.40000001;stroke-linecap:butt;stroke-linejoin:miter;stroke-miterlimit:4;stroke-opacity:1;stroke-dasharray:none;filter:url(#filter3766)"/>
        <path transform="matrix(-0.93569694,0.03919973,0,0.95703785,274.98262,-36.991274)" style="opacity:0.67368421;fill:none;stroke:#777777;stroke-width:0.40000001;stroke-linecap:butt;stroke-linejoin:miter;stroke-miterlimit:4;stroke-opacity:1;stroke-dasharray:none;filter:url(#filter3766)" d="m 324.59551,585.30063 c -0.51757,5.29164 -1.07249,52.86145 -1.58326,88.13478" id="path4053" sodipodi:nodetypes="cc"/>
        <path sodipodi:nodetypes="cc" id="path4055" d="m 327.32829,584.91023 c -0.51757,5.29164 -3.80527,53.25185 -4.31604,88.52518" style="opacity:0.67368421;fill:none;stroke:#171717;stroke-width:0.71346915;stroke-linecap:butt;stroke-linejoin:miter;stroke-miterlimit:4;stroke-opacity:1;stroke-dasharray:none;filter:url(#filter3797)" transform="matrix(-0.93569694,0.03919973,0,0.95703785,273.94941,-38.004759)"/>
        <path transform="matrix(-0.93569694,0.03919973,0,0.95703785,264.16069,-37.594674)" style="opacity:0.67368421;fill:none;stroke:#150202;stroke-width:0.71346915;stroke-linecap:butt;stroke-linejoin:miter;stroke-miterlimit:4;stroke-opacity:1;stroke-dasharray:none;filter:url(#filter3784)" d="m 324.59551,585.30063 c -0.51757,5.29164 -1.07249,52.86145 -1.58326,88.13478" id="path4057" sodipodi:nodetypes="cc"/>
        <path sodipodi:nodetypes="cc" id="path4059" d="m 326.1571,584.91023 c -0.51757,5.29164 -2.63408,53.25185 -3.14485,88.52518" style="opacity:0.67368421;fill:none;stroke:#111111;stroke-width:0.71346915;stroke-linecap:butt;stroke-linejoin:miter;stroke-miterlimit:4;stroke-opacity:1;stroke-dasharray:none;filter:url(#filter3784)" transform="matrix(-0.93569694,0.03919973,0,0.95703785,264.16069,-37.594674)"/>
        <path transform="matrix(-0.93569694,0.03919973,0,0.95703785,254.37196,-37.184589)" style="opacity:0.67368421;fill:#111111;fill-opacity:1;stroke:#000000;stroke-width:0.71346915;stroke-linecap:butt;stroke-linejoin:miter;stroke-miterlimit:4;stroke-opacity:1;stroke-dasharray:none;filter:url(#filter3784)" d="m 327.32829,583.34864 c -0.51757,5.29164 -2.63408,55.59423 -3.14485,90.86756" id="path4061" sodipodi:nodetypes="cc"/>
        <path sodipodi:nodetypes="cc" id="path4063" d="m 324.59551,585.30063 c -0.51757,5.29164 -1.07249,52.86145 -1.58326,88.13478" style="opacity:0.67368421;fill:none;stroke:#150202;stroke-width:0.71346915;stroke-linecap:butt;stroke-linejoin:miter;stroke-miterlimit:4;stroke-opacity:1;stroke-dasharray:none;filter:url(#filter3784)" transform="matrix(-0.93569694,0.03919973,0,0.95703785,246.54098,-36.856522)"/>
        <path transform="matrix(-0.93569694,0.03919973,0,0.95703785,246.54098,-36.856522)" style="opacity:0.67368421;fill:none;stroke:#030303;stroke-width:0.71346915;stroke-linecap:butt;stroke-linejoin:miter;stroke-miterlimit:4;stroke-opacity:1;stroke-dasharray:none;filter:url(#filter3784)" d="m 328.10908,583.73904 c -0.51757,5.29164 -3.02447,53.64225 -3.53524,88.91558" id="path4065" sodipodi:nodetypes="cc"/>
        <path transform="matrix(-0.97887232,0,0,1.001198,-62.327043,-11.371516)" id="path4067" d="m 3.166519,548.57993 c 0.7036709,0 0.5277532,-0.17591 0.5277532,0.52776 0,0.17591 -0.1243926,0.40336 0,0.52775 0.1243926,0.12439 0.4033605,-0.12439 0.5277531,0 0.1243926,0.12439 -0.078673,0.37041 0,0.52775 0.1112602,0.22252 0.4164931,0.30524 0.5277532,0.52776 0.078673,0.15734 0,0.35183 0,0.52775 0,0.52775 0,1.05551 0,1.58326 0,0.17592 -0.1243926,0.40336 0,0.52775 0.1243926,0.1244 0.3704076,-0.0787 0.5277532,0 0.2225202,0.11126 0.7036709,0.35184 0.5277531,0.52776 -0.1759177,0.17591 -0.7036709,-0.70368 -0.5277531,-0.52776 0.3518354,0.35184 0.6415027,0.77951 1.0555063,1.05551 0.8189551,0.54597 0.3433743,-0.89651 1.0555063,0.52775 0.078673,0.15735 0,0.35184 0,0.52776 0,0.52775 0,1.0555 0,1.58325 0,0.35371 0,0.7018 0,1.05551 0,0.17592 0,0.70367 0,0.52775 0,-0.35183 0,-1.40734 0,-1.0555 0,1.23142 0,2.46285 0,3.69427 0,1.23142 0,2.46285 0,3.69427 0,0.52776 0,1.05551 0,1.58326 0,0.17592 0.1759178,0.52775 0,0.52775 -0.1759177,0 0,-0.35183 0,-0.52775" style="fill:none;stroke:#e8d1d1;stroke-width:1px;stroke-linecap:butt;stroke-linejoin:miter;stroke-opacity:1;filter:url(#filter3807)"/>
        <path transform="matrix(-0.86400306,0,0,3.4974907,-58.119193,-1402.2204)" id="path4069" d="m -36.942722,558.91297 c 0,0.87959 0,1.75918 0,2.63877 0,0.17592 0,0.35183 0,0.52775 0,0.17592 -0.07867,0.37041 0,0.52775 0.11126,0.22252 0.416493,0.30524 0.527754,0.52776 0.469113,0.93823 -0.293197,0.29319 -0.527754,0.52775 -0.124392,0.12439 0,0.35184 0,0.52775 0,0.35371 0,0.7018 0,1.05551 0,0.87959 0,1.75918 0,2.63877 0,0.17591 -0.124392,0.40336 0,0.52775 0.124393,0.12439 0.403361,-0.12439 0.527754,0 0.124392,0.12439 0,0.35183 0,0.52775 0,1.05551 0,2.11101 0,3.16652" style="fill:#eeeeee;stroke:#f1dada;stroke-width:1px;stroke-linecap:butt;stroke-linejoin:miter;stroke-opacity:1;filter:url(#filter3897)"/>
        <path style="fill:#333333;fill-opacity:1;fill-rule:evenodd;stroke:#000000;stroke-width:0;stroke-linecap:round;stroke-linejoin:round;stroke-miterlimit:4;stroke-opacity:0.96103893;stroke-dashoffset:0" d="m -0.463624,542.47146 -22.93099,0.49924 c -7.37045,0.15014 -13.30406,6.3413 -13.30406,13.88152 l 1.381688,66.76737 c 0,7.54022 8.044632,11.90638 15.415082,11.75624 l 21.43828,-0.43672 c 7.37045,-0.15015 13.30407,-6.34131 13.30407,-13.88153 l -2,-65.24664 c 0,-7.54022 -5.93362,-13.48963 -13.30407,-13.33949 l 0,10e-6 z" id="rect3701" sodipodi:nodetypes="cccccccccc"/>
        <path style="opacity:0.67368421;fill:none;stroke:#696969;stroke-width:0.40000001;stroke-linecap:butt;stroke-linejoin:miter;stroke-miterlimit:4;stroke-opacity:1;stroke-dasharray:none;filter:url(#filter3766)" d="m -24.276642,549.41341 c -0.51757,5.29164 -1.07249,52.86145 -1.58326,88.13478" id="path3756" sodipodi:nodetypes="cc" transform="matrix(-1,0.0418936,0,1.0228075,-26.862486,-16.854537)"/>
        <path sodipodi:nodetypes="cc" id="path3770" d="m -14.276642,549.41341 c -0.51757,5.29164 -1.07249,52.86145 -1.58326,88.13478" style="opacity:0.67368421;fill:none;stroke:#888888;stroke-width:0.40000001;stroke-linecap:butt;stroke-linejoin:miter;stroke-miterlimit:4;stroke-opacity:1;stroke-dasharray:none;filter:url(#filter3766)" transform="matrix(-1,0.0418936,0,1.0228075,-26.862486,-16.854537)"/>
        <path style="opacity:0.67368421;fill:none;stroke:#666666;stroke-width:0.40000001;stroke-linecap:butt;stroke-linejoin:miter;stroke-miterlimit:4;stroke-opacity:1;stroke-dasharray:none;filter:url(#filter3766)" d="m -6.2766423,549.41341 c -0.51757,5.29164 -1.07249,52.86145 -1.58326,88.13478" id="path3772" sodipodi:nodetypes="cc" transform="matrix(-1,0.0418936,0,1.0228075,-26.862486,-16.854537)"/>
        <path sodipodi:nodetypes="cc" id="path3774" d="m 324.59551,585.30063 c -0.51757,5.29164 -1.07249,52.86145 -1.58326,88.13478" style="opacity:0.67368421;fill:none;stroke:#777777;stroke-width:0.40000001;stroke-linecap:butt;stroke-linejoin:miter;stroke-miterlimit:4;stroke-opacity:1;stroke-dasharray:none;filter:url(#filter3766)" transform="matrix(-0.95589274,0.0400458,0,0.97769426,317.72756,-39.60354)"/>
        <path transform="matrix(-0.95589274,0.0400458,0,0.97769426,316.67205,-40.6389)" style="opacity:0.67368421;fill:none;stroke:#171717;stroke-width:0.71346915;stroke-linecap:butt;stroke-linejoin:miter;stroke-miterlimit:4;stroke-opacity:1;stroke-dasharray:none;filter:url(#filter3797)" d="m 327.32829,584.91023 c -0.51757,5.29164 -3.80527,53.25185 -4.31604,88.52518" id="path3776" sodipodi:nodetypes="cc"/>
        <path sodipodi:nodetypes="cc" id="path3778" d="m 324.59551,585.30063 c -0.51757,5.29164 -1.07249,52.86145 -1.58326,88.13478" style="opacity:0.67368421;fill:none;stroke:#150202;stroke-width:0.71346915;stroke-linecap:butt;stroke-linejoin:miter;stroke-miterlimit:4;stroke-opacity:1;stroke-dasharray:none;filter:url(#filter3784)" transform="matrix(-0.95589274,0.0400458,0,0.97769426,306.67205,-40.219964)"/>
        <path transform="matrix(-0.95589274,0.0400458,0,0.97769426,306.67205,-40.219964)" style="opacity:0.67368421;fill:none;stroke:#111111;stroke-width:0.71346915;stroke-linecap:butt;stroke-linejoin:miter;stroke-miterlimit:4;stroke-opacity:1;stroke-dasharray:none;filter:url(#filter3784)" d="m 326.1571,584.91023 c -0.51757,5.29164 -2.63408,53.25185 -3.14485,88.52518" id="path3788" sodipodi:nodetypes="cc"/>
        <path sodipodi:nodetypes="cc" id="path3790" d="m 327.32829,583.34864 c -0.51757,5.29164 -2.63408,55.59423 -3.14485,90.86756" style="opacity:0.67368421;fill:#111111;fill-opacity:1;stroke:#000000;stroke-width:0.71346915;stroke-linecap:butt;stroke-linejoin:miter;stroke-miterlimit:4;stroke-opacity:1;stroke-dasharray:none;filter:url(#filter3784)" transform="matrix(-0.95589274,0.0400458,0,0.97769426,296.67205,-39.801028)"/>
        <path transform="matrix(-0.95589274,0.0400458,0,0.97769426,288.67205,-39.46588)" style="opacity:0.67368421;fill:none;stroke:#150202;stroke-width:0.71346915;stroke-linecap:butt;stroke-linejoin:miter;stroke-miterlimit:4;stroke-opacity:1;stroke-dasharray:none;filter:url(#filter3784)" d="m 324.59551,585.30063 c -0.51757,5.29164 -1.07249,52.86145 -1.58326,88.13478" id="path3792" sodipodi:nodetypes="cc"/>
        <path sodipodi:nodetypes="cc" id="path3794" d="m 328.10908,583.73904 c -0.51757,5.29164 -3.02447,53.64225 -3.53524,88.91558" style="opacity:0.67368421;fill:none;stroke:#030303;stroke-width:0.71346915;stroke-linecap:butt;stroke-linejoin:miter;stroke-miterlimit:4;stroke-opacity:1;stroke-dasharray:none;filter:url(#filter3784)" transform="matrix(-0.95589274,0.0400458,0,0.97769426,288.67205,-39.46588)"/>
        <path style="fill:none;stroke:#e8d1d1;stroke-width:1px;stroke-linecap:butt;stroke-linejoin:miter;stroke-opacity:1;filter:url(#filter3807)" d="m 3.166519,548.57993 c 0.7036709,0 0.5277532,-0.17591 0.5277532,0.52776 0,0.17591 -0.1243926,0.40336 0,0.52775 0.1243926,0.12439 0.4033605,-0.12439 0.5277531,0 0.1243926,0.12439 -0.078673,0.37041 0,0.52775 0.1112602,0.22252 0.4164931,0.30524 0.5277532,0.52776 0.078673,0.15734 0,0.35183 0,0.52775 0,0.52775 0,1.05551 0,1.58326 0,0.17592 -0.1243926,0.40336 0,0.52775 0.1243926,0.1244 0.3704076,-0.0787 0.5277532,0 0.2225202,0.11126 0.7036709,0.35184 0.5277531,0.52776 -0.1759177,0.17591 -0.7036709,-0.70368 -0.5277531,-0.52776 0.3518354,0.35184 0.6415027,0.77951 1.0555063,1.05551 0.8189551,0.54597 0.3433743,-0.89651 1.0555063,0.52775 0.078673,0.15735 0,0.35184 0,0.52776 0,0.52775 0,1.0555 0,1.58325 0,0.35371 0,0.7018 0,1.05551 0,0.17592 0,0.70367 0,0.52775 0,-0.35183 0,-1.40734 0,-1.0555 0,1.23142 0,2.46285 0,3.69427 0,1.23142 0,2.46285 0,3.69427 0,0.52776 0,1.05551 0,1.58326 0,0.17592 0.1759178,0.52775 0,0.52775 -0.1759177,0 0,-0.35183 0,-0.52775" id="path3801" transform="matrix(-1,0,0,1.0228075,-26.862486,-13.430813)"/>
        <path style="fill:#eeeeee;stroke:#f1dada;stroke-width:1px;stroke-linecap:butt;stroke-linejoin:miter;stroke-opacity:1;filter:url(#filter3897)" d="m -36.942722,558.91297 c 0,0.87959 0,1.75918 0,2.63877 0,0.17592 0,0.35183 0,0.52775 0,0.17592 -0.07867,0.37041 0,0.52775 0.11126,0.22252 0.416493,0.30524 0.527754,0.52776 0.469113,0.93823 -0.293197,0.29319 -0.527754,0.52775 -0.124392,0.12439 0,0.35184 0,0.52775 0,0.35371 0,0.7018 0,1.05551 0,0.87959 0,1.75918 0,2.63877 0,0.17591 -0.124392,0.40336 0,0.52775 0.124393,0.12439 0.403361,-0.12439 0.527754,0 0.124392,0.12439 0,0.35183 0,0.52775 0,1.05551 0,2.11101 0,3.16652" id="path3811" transform="matrix(-0.88265144,0,0,3.5729795,-22.563815,-1434.2993)"/>
        <g id="g4159">
          <path sodipodi:nodetypes="ccccsccccccaccccsc" id="path4153" d="m 87.323616,595.21932 -3.731779,13.80758 -0.373178,0.74636 7.149252,-15.12336 c 0,0 -17.890373,-43.79952 -20.583654,-44.95827 -1.470627,-0.63272 -23.883382,-4.10496 -23.883382,-4.10496 l 0,-1.86589 44.16304,-2.02046 1.108548,-10.60356 10.331907,0.30915 5.22449,10.44898 c 0,0 6.24132,9.50004 7.46356,14.92712 2.65159,11.77376 -0.74636,36.19825 -0.74636,36.19825 1.56435,-0.29209 4.94758,3.40142 4.97085,16.41982 l -2.61225,-0.37317 c 0.56465,-5.84841 -1.22323,-11.06291 -5.61908,-14.92712 0,0 -6.62911,2.06476 -10.920274,2.23907 -3.994724,0.16227 -11.94169,-1.11954 -11.94169,-1.11954 z" style="fill:#fb8b00;stroke:#f1c219;stroke-width:1;stroke-linecap:butt;stroke-linejoin:miter;stroke-miterlimit:4;stroke-opacity:1;stroke-dasharray:none"/>
          <path sodipodi:nodetypes="ccccccccsccccc" id="path4155" d="m 114.5656,562.75285 26.8688,-0.74635 16.79301,4.85131 7.5813,1.47309 -4.2227,-17.51974 -2.23907,-19.03207 -11.56851,0.37318 -2.23907,12.31487 c 0,0 -25.00292,4.47813 -24.25656,0.74635 0.74635,-3.73177 0,-8.95626 0,-8.95626 l -6.34402,0.37317 -1.49271,10.0758 c 1.02958,1.11411 -5.79224,-5.11758 -5.71803,-4.00347 1.60427,3.83563 6.62711,12.90332 6.83756,20.05012 z" style="fill:#fb8b00;fill-opacity:1;stroke:#debe0f;stroke-width:0.69999999;stroke-linecap:butt;stroke-linejoin:miter;stroke-miterlimit:4;stroke-opacity:1;stroke-dasharray:none"/>
          <path id="path4157" d="m 114.93878,562.75285 27.24198,-1.49271 24.62974,7.46356 0.37317,24.25656 -32.83964,0.74636 -20.11236,2.84804 -0.41243,-3.96758 1.11954,-29.85423 z" style="fill:#f0a513;stroke:#b9923b;stroke-width:0.2;stroke-linecap:butt;stroke-linejoin:miter;stroke-miterlimit:4;stroke-opacity:1;stroke-dasharray:none" sodipodi:nodetypes="cccccccc"/>
          <path sodipodi:nodetypes="ccsscccscscccssscc" id="path4139" d="m 89.218654,611.02691 -0.02916,-12.31488 2.239068,-8.71719 c 0.700103,-2.72566 -16.687698,-36.36719 -22.390671,-39.93003 -3.116743,-1.94713 -18.60585,-5.90683 -18.60585,-5.90683 l -5.277532,-11.25935 -17.166181,-0.37318 c 0,0 0.465022,9.94472 -3.731778,11.94169 -2.887676,1.37405 -17.9125367,0 -17.9125367,0 0,0 6.4580037,2.7693 5.9708457,20.1516 -0.236972,8.45538 0.746356,25.3761 0.746356,25.3761 l 39.930029,0.74635 5.970845,0.37318 c 0,0 11.045377,0.92125 14.907489,-2.84774 0.432189,-0.42177 8.809709,4.43137 8.602715,4.71363 0,0 -1.264327,4.48293 -1.865889,6.7172 -0.910708,3.38248 2.966253,10.32945 2.966253,10.32945 0,0 7.885059,2.11953 5.645992,1 z" style="fill:#ffaf00;fill-opacity:0.90588235;stroke:#e0a53c;stroke-width:1;stroke-linecap:butt;stroke-linejoin:miter;stroke-miterlimit:4;stroke-opacity:1;stroke-dasharray:none"/>
        </g>
        <path sodipodi:nodetypes="ccccc" id="path4151" d="m 165.68708,591.04699 -52.55431,-34.63468 -0.80236,1.16745 51.75196,35.02385 1.60471,-1.55662 z" style="fill:#666666;stroke:#000000;stroke-width:0.206;stroke-linecap:butt;stroke-linejoin:miter;stroke-miterlimit:4;stroke-opacity:1;stroke-dasharray:none"/>
        <g id="g4135">
          <path sodipodi:nodetypes="ccsccc" id="path4131" d="m 13.434402,609.02691 -1.492711,-18.6589 c 0,0 28.988051,-1.19453 43.28863,0.74636 7.892653,1.0712 28.637026,5.97084 28.637026,5.97084 l -0.275056,10.56673 -70.157889,1.37497 z" style="fill:url(#linearGradient5104);fill-opacity:1;stroke:#3e3e3e;stroke-width:1;stroke-linecap:butt;stroke-linejoin:miter;stroke-miterlimit:4;stroke-opacity:1;stroke-dasharray:none"/>
          <path style="fill:url(#linearGradient5106);fill-opacity:1;stroke:#5e5e5e;stroke-width:1;stroke-linecap:butt;stroke-linejoin:miter;stroke-miterlimit:4;stroke-opacity:1;stroke-dasharray:none" d="m 187.70846,598.95111 0.37317,-7.46357 c 0,0 -30.10758,-0.44818 -44.40816,1.49271 -7.89265,1.0712 -29.40255,1.86589 -29.40255,1.86589 3.19502,2.8086 4.97054,6.68182 4.39963,12.31487 19.75851,-0.10447 53.74064,-5.84947 69.03791,-8.2099 z" id="path4133" sodipodi:nodetypes="ccsccc"/>
        </g>
        <path sodipodi:nodetypes="ccsccsc" id="path4169" d="m 186.9621,599.69746 1.49272,5.22448 c 0,0 -27.23895,2.87258 -39.80322,3.2245 -9.4534,0.26478 -29.56862,0.62503 -29.56862,0.62503 l 0.70711,-3.39785 c 0,0 21.7626,-0.1789 33.21283,-0.82485 10.44421,-0.5892 33.95918,-4.85131 33.95918,-4.85131 z" style="fill:#141819;fill-opacity:0.90588235;stroke:#000000;stroke-width:1px;stroke-linecap:butt;stroke-linejoin:miter;stroke-opacity:1"/>
        <path style="fill:#141819;fill-opacity:0.90588235;stroke:#000000;stroke-width:0;stroke-linecap:butt;stroke-linejoin:miter;stroke-miterlimit:4;stroke-opacity:1;stroke-dasharray:none" d="m 13.061225,601.93653 -0.373178,5.97084 c 0,0 25.126694,0.76762 37.690962,1.11954 9.453404,0.26478 33.447302,0.24635 33.447302,0.24635 l -0.585786,-3.60496 c 0,0 -27.382135,-1.59311 -38.832362,-2.23906 -10.444213,-0.5892 -31.346938,-1.49271 -31.346938,-1.49271 z" id="path4167" sodipodi:nodetypes="ccsccsc"/>
        <path style="fill:#333333;stroke:#000000;stroke-width:0;stroke-linecap:butt;stroke-linejoin:miter;stroke-miterlimit:4;stroke-opacity:1;stroke-dasharray:none" d="m 84.433509,608.9215 0.180194,-10.96311 -27.517493,-6.47084 c 0,0 10.877638,-4.79323 16.773378,-3.9084 4.36313,0.65482 8.583313,1.13866 9.722249,5.40111 1.43211,5.35965 0.841672,15.94124 0.841672,15.94124 z" id="path4318" sodipodi:nodetypes="cccssc"/>
        <path style="fill:#333333;stroke:#000000;stroke-width:0.1;stroke-linecap:butt;stroke-linejoin:miter;stroke-miterlimit:4;stroke-opacity:1;stroke-dasharray:none" d="m 12.314869,575.4409 45.154519,1.49271 c 0,0 2.239067,-5.22449 0,-5.22449 -2.239067,0 -44.408163,-0.37318 -44.408163,-0.37318 l -0.746356,4.10496 z" id="path4141"/>
        <path style="fill:#333333;stroke:#000000;stroke-width:0.1;stroke-linecap:butt;stroke-linejoin:miter;stroke-miterlimit:4;stroke-opacity:1;stroke-dasharray:none" d="m 57.09621,569.47005 0,4.47814 14.180758,0 0.373178,-5.59767 -14.553936,1.11953 z" id="path4143"/>
        <path id="path4147" d="m 126.8145,566.80596 0,4.28792 c -2.59026,-0.19474 -5.18051,-0.73242 -7.77077,0 l -4.89624,0 -0.33334,-5.35989 13.00035,1.07197 z" style="fill:#333333;stroke:#000000;stroke-width:0.09248292;stroke-linecap:butt;stroke-linejoin:miter;stroke-miterlimit:4;stroke-opacity:1;stroke-dasharray:none" sodipodi:nodetypes="cccccc"/>
        <path id="path4145" d="m 166.81559,572.52318 -40.33443,1.4293 c 0,0 -2.00006,-5.00256 0,-5.00256 2.00006,0 39.66774,-0.35733 39.66774,-0.35733 l 0.66669,3.93059 z" style="fill:#333333;stroke:#000000;stroke-width:0.09248292;stroke-linecap:butt;stroke-linejoin:miter;stroke-miterlimit:4;stroke-opacity:1;stroke-dasharray:none"/>
        <g id="g4368" transform="matrix(0.92936385,0,0,0.78720059,3.3717393,115.78589)">
          <path sodipodi:nodetypes="ccccc" id="path4356" d="m 45.386772,543.08037 -4.485902,-10.0273 0.79163,0 4.121747,9.54943 -0.427475,0.47787 z" style="fill:#000000;stroke:#000000;stroke-width:1px;stroke-linecap:butt;stroke-linejoin:miter;stroke-opacity:1"/>
          <path sodipodi:nodetypes="ccccc" id="path4358" d="m 42.220254,533.58081 0,-6.33303 -22.165633,0 c -3.419513,3.52527 -0.976464,4.85207 1.055506,6.33304 l 21.110127,-10e-6 z" style="fill:url(#radialGradient5108);fill-opacity:1;stroke:#000000;stroke-width:1px;stroke-linecap:butt;stroke-linejoin:miter;stroke-opacity:1"/>
        </g>
        <g id="g4241" transform="translate(52.244898,-63.440233)">
          <path style="fill:#fdca01;stroke:#cdbf03;stroke-width:0.69999999;stroke-linecap:butt;stroke-linejoin:miter;stroke-miterlimit:4;stroke-opacity:1;stroke-dasharray:none" d="m -40.513961,642.12773 0,11.93669 c -1.32592,1.55775 -4.646882,5.65256 -5.249798,8.35862 -0.15525,0.6968 -0.172375,1.65974 -0.117314,2.61024 -2.883541,0.99427 -6.075066,1.69053 -7.244135,4.39927 0,0 4.55014,2.29072 7.009507,2.81553 2.856614,0.60959 8.769216,0.35195 8.769216,0.35195 l -8.417274,-3.87136 0.117313,-1.4371 c 0.113493,0.80921 0.234628,1.4371 0.234628,1.4371 l 8.006676,3.13814 1.085154,-25.89705 -2.786206,-2.11165 4.897856,-1.37844 -6.305623,-0.35194 z" id="path4235" sodipodi:nodetypes="ccsccsccccccccc"/>
        </g>
        <path style="opacity:0.68947371;fill:#fdca01;stroke:#b9ad16;stroke-width:0;stroke-linecap:butt;stroke-linejoin:miter;stroke-miterlimit:4;stroke-opacity:1;stroke-dasharray:none" d="m 172.80685,583.70107 c -4.30481,-0.21284 10.8344,-0.74086 13.07408,2.94165 3.80993,6.26429 1.9611,24.18702 1.9611,24.18702 l 12.42036,0.32684 -0.32686,-2.28796 -3.92221,0 c 0,0 -5.55648,-1.30739 -5.22962,-3.59536 0.32686,-2.28796 -0.0822,-15.07929 -0.6537,-19.93795 -0.42895,-3.64653 -9.2951,-1.23734 -17.32315,-1.63424 z" id="path4246" sodipodi:nodetypes="csccccsss"/>
        <path style="opacity:0.94736843;fill:#eec73e;fill-opacity:0.90588235;fill-rule:evenodd;stroke:#ad5720;stroke-width:0.30000001;stroke-linecap:round;stroke-linejoin:round;stroke-miterlimit:4;stroke-opacity:1;stroke-dasharray:none;stroke-dashoffset:0" id="path4386" d="m -39.38433,559.86288 c -0.556087,1.43025 -0.98502,2.89776 -1.270504,4.40462 -0.206018,1.45365 -0.236691,2.92389 -0.253953,4.38958 0.04065,1.08585 -0.09064,2.18817 0.06415,3.26622 0.281961,0.99416 0.610913,1.95899 0.790508,2.98392 0.174311,1.0934 0.3008,2.15619 -0.207041,3.17208 -1.197233,0.96028 -1.400892,-2.52337 -1.43145,-3.06423 0.02444,-0.26603 0.04888,-0.53206 0.07333,-0.7981 0.0355,-0.37148 0.56086,-0.32128 0.525359,0.0502 l 0,0 c -0.0239,0.23983 -0.0478,0.47966 -0.0717,0.71949 0.04361,0.8539 0.0015,0.71273 0.17854,1.53609 0.08219,0.38229 0.297751,0.73938 0.314857,1.13003 0.0096,0.21859 -0.231764,0.15073 -0.05836,0.18534 0.476474,-0.89543 0.290088,-1.87244 0.156579,-2.84013 -0.179497,-1.03176 -0.523243,-1.99773 -0.793413,-3.00251 -0.147565,-1.10644 -0.03905,-2.23091 -0.06907,-3.34464 0.01769,-1.49657 0.04965,-2.99787 0.263175,-4.48177 0.285602,-1.50181 0.699014,-2.97222 1.268426,-4.39297 0.06135,-0.3681 0.581922,-0.28133 0.520572,0.0868 z"/>
        <path style="opacity:0.94736843;fill:#f0a513;fill-opacity:0.90588235;fill-rule:evenodd;stroke:#ad5720;stroke-width:0.30000001;stroke-linecap:round;stroke-linejoin:round;stroke-miterlimit:4;stroke-opacity:1;stroke-dasharray:none;stroke-dashoffset:0" id="path4388" d="m -36.151092,560.93813 c 0,2.847 0,5.69401 0,8.54101 0,2.02543 0,4.05085 0,6.07628 0,1.27328 0,2.54657 0,3.81985 0,3.3586 -4.749778,3.3586 -4.749778,0 l 0,0 c 0,-1.27328 0,-2.54657 0,-3.81985 0,-2.02543 0,-4.05085 0,-6.07628 0,-2.847 0,-5.69401 0,-8.54101 0,-3.3586 4.749778,-3.3586 4.749778,0 z"/>
        <path style="opacity:0.94736843;fill:#000000;fill-opacity:0.90588235;fill-rule:evenodd;stroke:#ad5720;stroke-width:0;stroke-linecap:round;stroke-linejoin:round;stroke-miterlimit:4;stroke-opacity:1;stroke-dasharray:none;stroke-dashoffset:0" d="m -13.9375,533.25 c -0.186365,-0.0146 -0.385079,0.008 -0.59375,0.0312 -0.715162,0.1097 -1.435172,0.002 -2.15625,0.0312 l -4.4375,0 -4.875,0 c -1.115096,0 -1.875355,0.51926 -2.25,1.21875 -0.768346,0.54641 -1.202508,1.54872 -0.78125,2.8125 0.371397,1.1463 0.556963,2.3365 0.6875,3.53125 -0.236217,0.0724 0.133609,0.52474 0,0.71875 -0.0019,-0.0334 0.0049,-0.0705 0,-0.0937 -0.983167,3.21148 3.548083,4.58648 4.53125,1.375 0.198604,-0.85166 0.350441,-1.65401 0.1875,-2.53125 -0.08658,-0.76273 -0.196044,-1.52875 -0.34375,-2.28125 l 2.84375,0 4.4375,0 c 0.89734,0.018 1.762851,0.02 2.65625,-0.0625 3.130066,-0.34194 2.889227,-4.53046 0.09375,-4.75 z" id="path4390"/>
        <path id="path4395" d="m -15.438342,534.5634 c -0.143605,-0.0113 -0.296725,0.006 -0.457519,0.0241 -0.551075,0.0845 -1.105885,0.002 -1.661519,0.0241 l -3.419356,0 -3.756478,0 c -0.859247,0 -1.445071,0.40012 -1.733758,0.93913 -0.592056,0.42103 -0.926604,1.19338 -0.602,2.1672 0.286184,0.88328 0.429173,1.8004 0.52976,2.72103 -0.182019,0.0558 0.102953,0.40434 0,0.55383 -0.0015,-0.0258 0.0037,-0.0543 0,-0.0722 -0.757589,2.47464 2.734009,3.53416 3.491598,1.05952 0.153036,-0.65626 0.270035,-1.27451 0.144479,-1.95048 -0.06672,-0.58772 -0.151063,-1.17799 -0.264879,-1.75784 l 2.191278,0 3.419356,0 c 0.691454,0.0138 1.358381,0.0154 2.046798,-0.0481 2.411902,-0.26348 2.226321,-3.49099 0.07224,-3.66016 z" style="opacity:0.94736843;fill:#f0a513;fill-opacity:0.90588235;fill-rule:evenodd;stroke:#ad5720;stroke-width:0;stroke-linecap:round;stroke-linejoin:round;stroke-miterlimit:4;stroke-opacity:1;stroke-dasharray:none;stroke-dashoffset:0"/>
        <path style="opacity:0.94736843;fill:#f0a513;fill-opacity:0.90588235;fill-rule:evenodd;stroke:#ad5720;stroke-width:0;stroke-linecap:round;stroke-linejoin:round;stroke-miterlimit:4;stroke-opacity:1;stroke-dasharray:none;stroke-dashoffset:0" d="m -13.9375,533.24999 c -0.186365,-0.0147 -0.385079,0.008 -0.593749,0.0313 -0.715163,0.10968 -1.435173,0.002 -2.156251,0.0313 l -4.4375,0 -4.875,0 c -1.115095,0 -1.875355,0.51926 -2.25,1.21877 -0.768346,0.54639 -1.202508,1.54872 -0.78125,2.8125 0.371398,1.14628 0.556963,2.33648 0.6875,3.53125 -0.236217,0.0724 0.133607,0.52472 0,0.71873 -0.0019,-0.0334 0.0049,-0.0705 0,-0.0936 -0.983167,3.21148 3.548083,4.58648 4.531252,1.375 0.198602,-0.85167 0.350439,-1.65401 0.187499,-2.53125 -0.08658,-0.76272 -0.196045,-1.52875 -0.343749,-2.28126 l 2.843748,0 4.4375,0 c 0.89734,0.018 1.762851,0.02 2.65625,-0.0625 3.130066,-0.34194 2.889227,-4.53047 0.09375,-4.75 z" id="path4397"/>
        <rect style="opacity:0.94736843;fill:#fdca01;fill-opacity:0.90588235;fill-rule:evenodd;stroke:#ad5720;stroke-width:0;stroke-linecap:round;stroke-linejoin:round;stroke-miterlimit:4;stroke-opacity:1;stroke-dasharray:none;stroke-dashoffset:0" id="rect4399" width="15.304841" height="7.388577" x="-27.443165" y="536.74738" ry="0"/>
        <path style="fill:#131617;fill-opacity:1;stroke:#000000;stroke-width:1;stroke-linecap:butt;stroke-linejoin:miter;stroke-miterlimit:4;stroke-opacity:1;stroke-dasharray:none" d="m -20.582373,500.33237 2.638765,18.99912 65.441393,0.52774 3.166519,-20.58237 c -36.23925,-0.5068 -34.847125,0.35463 -71.246677,1.05551 z" id="path4405" sodipodi:nodetypes="ccccc"/>
        <path style="fill:#aaaaaa;stroke:#000000;stroke-width:1px;stroke-linecap:butt;stroke-linejoin:miter;stroke-opacity:1;filter:url(#filter4483)" d="m -6.333038,506.13766 c 0.4163204,-0.47204 1.1112227,0.23601 1.5832595,0 0.2225203,-0.11126 0.2917348,-0.44909 0.5277532,-0.52776 0.3337804,-0.11126 0.7036709,0 1.0555063,0 0.7175926,0 1.3648707,0 2.1110127,0 1.75917719,0 3.5183544,0 5.2775316,0 5.2775317,0 10.5550637,0 15.8325947,0 1.935095,0 3.87019,0 5.805285,0 0.351836,0 0.703671,0 1.055506,0 0.527754,0 1.065755,-0.1035 1.58326,0 0.385725,0.0772 0.682328,0.40336 1.055506,0.52776 0.166891,0.0556 0.351836,0 0.527753,0 0.175918,0 0.351836,0 0.527754,0 0.879588,0 1.759177,0 2.638765,0 0.175918,0 0.351836,0 0.527754,0 0.175917,0 0.40336,-0.1244 0.527753,0 0.124392,0.12439 -0.124393,0.40336 0,0.52775 0.124392,0.12439 0.351835,0 0.527753,0 0.703671,0 1.407342,0 2.111013,0" id="path4445"/>
        <path style="fill:#eeeeee;stroke:#000000;stroke-width:1px;stroke-linecap:butt;stroke-linejoin:miter;stroke-opacity:1;filter:url(#filter4493)" d="m -7.3885443,511.94294 c 0.7036709,0 1.4073417,0 2.1110126,0 0.3518355,0 0.708458,-0.0578 1.0555064,0 0.7154585,0.11924 1.3912864,0.43779 2.1110126,0.52775 0.6982371,0.0873 1.40734181,0 2.1110127,0 1.2314241,0 2.4628481,0 3.6942722,0 0.7036709,0 1.414414,-0.0995 2.1110126,0 1.7759851,0.25372 3.5108144,0.74374 5.2775312,1.05551 1.224999,0.21618 2.467271,0.32325 3.694273,0.52775 0.884803,0.14747 1.746209,0.4385 2.638765,0.52776 0.875224,0.0875 1.759178,0 2.638766,0 1.759178,0 3.518355,0 5.277532,0 5.277532,0 10.555063,0 15.832595,0" id="path4487"/>
        <path style="fill:#eeeeee;stroke:#ecdfdf;stroke-width:1px;stroke-linecap:butt;stroke-linejoin:miter;stroke-opacity:1;filter:url(#filter4507)" d="m 81.801741,507.19316 c 6.684873,0 13.369747,0 20.054619,0 1.23143,0 2.46285,0 3.69427,0 0.17592,0 0.35184,0 0.52776,0 0.17591,0 0.52775,-0.17592 0.52775,0 0,0.17592 -0.70367,0 -0.52775,0 0.35183,0 0.70367,0 1.0555,0" id="path4497" transform="matrix(1.0025726,0,0,0.83055875,-0.24303095,85.147812)"/>
        <path style="fill:#c39c26;fill-opacity:0.90588445;stroke:#977310;stroke-width:0.30000001;stroke-linecap:butt;stroke-linejoin:miter;stroke-miterlimit:4;stroke-opacity:1;stroke-dasharray:none" d="m 46.790678,522.3341 c 4.278523,-37.28947 10.926876,-35.4857 16.539702,-39.41759 12.325812,3.81609 10.947388,19.62338 12.666076,32.7207 -0.954135,-1.27218 -10.463394,-3.84288 -13.721582,-3.16652 -8.158028,1.69351 -16.811925,8.86761 -15.484196,9.86341 z" id="path4511" sodipodi:nodetypes="cccsc"/>
        <path style="fill:#131617;fill-opacity:1;stroke:#000000;stroke-width:0;stroke-linecap:butt;stroke-linejoin:miter;stroke-miterlimit:4;stroke-opacity:1;stroke-dasharray:none;filter:url(#filter4515)" d="m 49.608798,506.66541 c 5.31945,-0.9522 6.145209,-0.4065 7.388544,0 7.631453,4.8293 12.978371,0.78074 17.943607,-1.0555 1.134409,-7.43167 0.773419,-19.69134 -11.082816,-22.16564 -8.615537,1.41532 -12.670505,9.13975 -14.249335,23.22114 z" id="path4513" sodipodi:nodetypes="ccccc"/>
        <path style="opacity:0.63684214;fill:none;stroke:#eed7d7;stroke-width:1px;stroke-linecap:butt;stroke-linejoin:miter;stroke-opacity:1;filter:url(#filter4591)" d="m 53.30307,499.80461 c -0.586585,-5.20428 2.900965,-9.39003 7.916298,-13.19383" id="path4521" sodipodi:nodetypes="cc"/>
        <path sodipodi:nodetypes="cc" id="path4595" d="m 22.693386,490.83281 c -0.586585,-5.20428 2.900965,-9.39003 7.916298,-13.19383" style="opacity:0.64736843;fill:none;stroke:#eed7d7;stroke-width:1px;stroke-linecap:butt;stroke-linejoin:miter;stroke-opacity:1;filter:url(#filter4591)" transform="matrix(-0.92357642,0,0,0.88661993,94.480157,62.291243)"/>
        <rect style="opacity:0.63684214;fill:url(#linearGradient5110);fill-opacity:1;fill-rule:evenodd;stroke:#eed7d7;stroke-width:0;stroke-linecap:round;stroke-linejoin:round;stroke-miterlimit:4;stroke-opacity:1;stroke-dasharray:none;stroke-dashoffset:0" id="rect4597" width="10.555063" height="4.2220254" x="58.052849" y="479.75"/>
        <rect style="fill:#d40000;fill-opacity:1;fill-rule:evenodd;stroke:#201313;stroke-width:0;stroke-linecap:round;stroke-linejoin:round;stroke-miterlimit:4;stroke-opacity:1;stroke-dasharray:none;stroke-dashoffset:0" id="rect4609" width="10.615203" height="1.7752272" x="46.469105" y="472.15747" ry="0.88761359"/>
        <rect style="fill:#d40000;fill-opacity:1;fill-rule:evenodd;stroke:#201313;stroke-width:0;stroke-linecap:round;stroke-linejoin:round;stroke-miterlimit:4;stroke-opacity:1;stroke-dasharray:none;stroke-dashoffset:0" id="rect4611" width="16.276646" height="3.3285503" x="54.961262" y="471.26981" ry="0.88761359"/>
        <rect style="fill:#d40000;fill-opacity:1;fill-rule:evenodd;stroke:#201313;stroke-width:0;stroke-linecap:round;stroke-linejoin:round;stroke-miterlimit:4;stroke-opacity:1;stroke-dasharray:none;stroke-dashoffset:0" id="rect4613" width="8.8460064" height="1.5533239" x="68.761032" y="471.71368" ry="0.77666193"/>
        <rect style="fill:#333333;fill-opacity:1;fill-rule:evenodd;stroke:#201313;stroke-width:0;stroke-linecap:round;stroke-linejoin:round;stroke-miterlimit:4;stroke-opacity:1;stroke-dasharray:none;stroke-dashoffset:0" id="rect4615" width="32.553291" height="1.9971308" x="45.05373" y="473.04507" ry="0.77666193"/>
        <rect style="fill:#333333;fill-opacity:1;fill-rule:evenodd;stroke:#201313;stroke-width:0;stroke-linecap:round;stroke-linejoin:round;stroke-miterlimit:4;stroke-opacity:1;stroke-dasharray:none;stroke-dashoffset:0" id="rect4620" width="5.3076015" height="4.4380674" x="60.268852" y="474.82034" ry="0.77666193"/>
        <path style="opacity:0.61052635;fill:#fb8b00;fill-opacity:1;stroke:#e0d81e;stroke-width:0;stroke-linecap:butt;stroke-linejoin:miter;stroke-miterlimit:4;stroke-opacity:1;stroke-dasharray:none;filter:url(#filter4815)" d="m 70.114323,556.37314 -49.945078,7.00285 -6.611995,-15.52191 47.385108,0.99429 c 6.184527,1.78659 11.520925,3.76891 9.171965,7.52477 z" id="path4659" sodipodi:nodetypes="ccccc"/>
        <path style="fill:#666666;stroke:#000000;stroke-width:0.2;stroke-linecap:butt;stroke-linejoin:miter;stroke-miterlimit:4;stroke-opacity:1;stroke-dasharray:none" d="m 13.434402,587.75577 48.886298,-33.21283 0.746356,1.11953 -48.139942,33.58601 -1.492712,-1.49271 z" id="path4149" sodipodi:nodetypes="ccccc"/>
        <path style="fill:#000000;fill-opacity:0.90588235;stroke:#000000;stroke-width:0.31057543;stroke-linecap:butt;stroke-linejoin:miter;stroke-miterlimit:4;stroke-opacity:1;stroke-dasharray:none" d="m 88.224991,612.81883 c 1.286977,-4.33757 -1.841783,-8.75573 2.268968,-16.61308 8.544597,1.93308 11.428661,0.14563 20.980921,-2.10066 3.69116,6.08325 4.42396,13.58489 4.07035,16.52262 -10.75135,3.20629 -15.1099,4.01618 -27.828571,0.0828 l 0.508332,2.10837 0,-5e-5 z" id="path4165" sodipodi:nodetypes="ccccccc"/>
        <path style="fill:#fdca01;stroke:#000000;stroke-width:0;stroke-linecap:butt;stroke-linejoin:miter;stroke-miterlimit:4;stroke-opacity:1;stroke-dasharray:none;filter:url(#filter4803)" d="m 70,546.86218 26.5,44 13,-1.5 -2.5,-45.5 -37,3 z" id="path4677" sodipodi:nodetypes="ccccc"/>
      </g>
    </g>
  </g>
</svg>